<svg width="17" height="13" viewBox="0 0 17 13" fill="none" xmlns="http://www.w3.org/2000/svg">
<path d="M5.552 12.1561C4.79467 12.1561 4.10133 12.0174 3.472 11.7401C2.84267 11.4628 2.30933 11.0734 1.872 10.5721C1.43467 10.0708 1.09333 9.46276 0.848 8.74809C0.602667 8.03343 0.48 7.24409 0.48 6.38009C0.48 5.51609 0.602667 4.73209 0.848 4.02809C1.09333 3.31343 1.43467 2.70543 1.872 2.20409C2.32 1.70276 2.85333 1.31343 3.472 1.03609C4.10133 0.75876 4.79467 0.620093 5.552 0.620093C6.30933 0.620093 6.99733 0.75876 7.616 1.03609C8.24533 1.31343 8.77867 1.70276 9.216 2.20409C9.664 2.70543 10.0107 3.31343 10.256 4.02809C10.5013 4.73209 10.624 5.51609 10.624 6.38009C10.624 7.24409 10.5013 8.03343 10.256 8.74809C10.0107 9.46276 9.66933 10.0708 9.232 10.5721C8.79467 11.0734 8.26133 11.4628 7.632 11.7401C7.00267 12.0174 6.30933 12.1561 5.552 12.1561ZM5.552 9.91609C6.34133 9.91609 6.96 9.60143 7.408 8.97209C7.86667 8.34276 8.096 7.47876 8.096 6.38009C8.096 5.30276 7.86667 4.44943 7.408 3.82009C6.94933 3.18009 6.33067 2.86009 5.552 2.86009C4.77333 2.86009 4.15467 3.18009 3.696 3.82009C3.23733 4.44943 3.008 5.30276 3.008 6.38009C3.008 7.47876 3.232 8.34276 3.68 8.97209C4.13867 9.60143 4.76267 9.91609 5.552 9.91609ZM16.3094 0.796093V11.9961H13.7174V3.42009L11.3974 4.34809V2.10809L14.6774 0.796093H16.3094Z" fill="#87879D"/>
</svg>
