<svg width="20" height="13" viewBox="0 0 20 13" fill="none" xmlns="http://www.w3.org/2000/svg">
<path d="M5.46606 12.16C4.70873 12.16 4.0154 12.0213 3.38606 11.744C2.75673 11.4667 2.2234 11.0773 1.78606 10.576C1.34873 10.0747 1.0074 9.46667 0.762063 8.752C0.516729 8.03733 0.394063 7.248 0.394063 6.384C0.394063 5.52 0.516729 4.736 0.762063 4.032C1.0074 3.31733 1.34873 2.70933 1.78606 2.208C2.23406 1.70667 2.7674 1.31733 3.38606 1.04C4.0154 0.762666 4.70873 0.624 5.46606 0.624C6.2234 0.624 6.9114 0.762666 7.53006 1.04C8.1594 1.31733 8.69273 1.70667 9.13006 2.208C9.57806 2.70933 9.92473 3.31733 10.1701 4.032C10.4154 4.736 10.5381 5.52 10.5381 6.384C10.5381 7.248 10.4154 8.03733 10.1701 8.752C9.92473 9.46667 9.5834 10.0747 9.14606 10.576C8.70873 11.0773 8.1754 11.4667 7.54606 11.744C6.91673 12.0213 6.2234 12.16 5.46606 12.16ZM5.46606 9.92C6.2554 9.92 6.87406 9.60533 7.32206 8.976C7.78073 8.34667 8.01006 7.48267 8.01006 6.384C8.01006 5.30667 7.78073 4.45333 7.32206 3.824C6.8634 3.184 6.24473 2.864 5.46606 2.864C4.6874 2.864 4.06873 3.184 3.61006 3.824C3.1514 4.45333 2.92206 5.30667 2.92206 6.384C2.92206 7.48267 3.14606 8.34667 3.59406 8.976C4.05273 9.60533 4.67673 9.92 5.46606 9.92ZM11.3189 12V10.192L15.8149 6.288C16.2203 5.92533 16.5136 5.59467 16.6949 5.296C16.8869 4.99733 16.9829 4.68267 16.9829 4.352C16.9829 3.92533 16.8123 3.57333 16.4709 3.296C16.1296 3.008 15.6976 2.864 15.1749 2.864C14.6523 2.864 14.1616 2.97067 13.7029 3.184C13.2549 3.39733 12.7589 3.74933 12.2149 4.24L10.7749 2.512C11.4469 1.904 12.1616 1.44533 12.9189 1.136C13.6869 0.815999 14.4709 0.655999 15.2709 0.655999C15.9003 0.655999 16.4763 0.741333 16.9989 0.912C17.5216 1.08267 17.9643 1.32267 18.3269 1.632C18.7003 1.94133 18.9883 2.31467 19.1909 2.752C19.4043 3.18933 19.5109 3.66933 19.5109 4.192C19.5109 4.81067 19.3456 5.39733 19.0149 5.952C18.6949 6.496 18.1669 7.088 17.4309 7.728L14.9669 9.84H19.6229V12H11.3189Z" fill="#87879D"/>
</svg>
